<?xml version="1.0" encoding="UTF-8" standalone="no"?><!-- Generator: Gravit.io --><svg xmlns="http://www.w3.org/2000/svg" xmlns:xlink="http://www.w3.org/1999/xlink" style="isolation:isolate" viewBox="0 0 150 150" width="150pt" height="150pt"><defs><clipPath id="_clipPath_AMtSkZB7rnItRURjuUey2zw8c2Afg0hY"><rect width="150" height="150"/></clipPath></defs><g clip-path="url(#_clipPath_AMtSkZB7rnItRURjuUey2zw8c2Afg0hY)"><clipPath id="_clipPath_9bg4lUm4uHC9iHq1v5LMcj46UozI0DwT"><rect x="0" y="0" width="150" height="150" transform="matrix(1,0,0,1,0,0)" fill="rgb(255,255,255)"/></clipPath><g clip-path="url(#_clipPath_9bg4lUm4uHC9iHq1v5LMcj46UozI0DwT)"><g><clipPath id="_clipPath_PxIzlyyDKDNWpvLOAB8XWPYv8veUQUme"><rect x="0" y="0" width="150" height="150" transform="matrix(1,0,0,1,0,0)" fill="rgb(255,255,255)"/></clipPath><g clip-path="url(#_clipPath_PxIzlyyDKDNWpvLOAB8XWPYv8veUQUme)"><g><g><clipPath id="_clipPath_zWiyxgMQsQ5fAHLeOQai1WJYWaE5KMOA"><rect x="0" y="0" width="150" height="150" transform="matrix(1,0,0,1,0,0)" fill="rgb(255,255,255)"/></clipPath><g clip-path="url(#_clipPath_zWiyxgMQsQ5fAHLeOQai1WJYWaE5KMOA)"><g><g><g><g opacity="0"><rect x="0" y="0" width="150" height="150" transform="matrix(1,0,0,1,0,0)" fill="rgb(255,255,255)"/></g><g><clipPath id="_clipPath_T8TKVBjgzhnHE9JXzTUBEMCkJ9gOfqqn"><path d=" M -300 -300 L 300 -300 L 300 300 L -300 300 L -300 -300 L -300 -300 L -300 -300 Z  M 10.671 74.727 C 10.671 39.18 39.422 10.387 74.917 10.387 C 110.411 10.387 139.162 39.18 139.162 74.727 C 139.162 110.275 110.411 139.068 74.917 139.068 C 39.422 139.068 10.671 110.275 10.671 74.727 Z " fill-rule="evenodd" fill="rgb(255,255,255)"/></clipPath><g clip-path="url(#_clipPath_T8TKVBjgzhnHE9JXzTUBEMCkJ9gOfqqn)"><g><g><clipPath id="_clipPath_umdp0FcNes1ozeD8CI7yJMd8bnP1Ab76"><path d=" M -300 -300 L 300 -300 L 300 300 L -300 300 L -300 -300 L -300 -300 Z  M 10.671 74.727 C 10.671 39.18 39.422 10.387 74.917 10.387 C 110.411 10.387 139.162 39.18 139.162 74.727 C 139.162 110.275 110.411 139.068 74.917 139.068 C 39.422 139.068 10.671 110.275 10.671 74.727 Z " fill-rule="evenodd" fill="rgb(255,255,255)"/></clipPath><g clip-path="url(#_clipPath_umdp0FcNes1ozeD8CI7yJMd8bnP1Ab76)"><g><clipPath id="_clipPath_FTM9Day5tanRGlxOK3Zvd6fK1IwocUms"><path d=" M -300 -300 L 300 -300 L 300 300 L -300 300 L -300 -300 Z  M 10.671 74.727 C 10.671 39.18 39.422 10.387 74.917 10.387 C 110.411 10.387 139.162 39.18 139.162 74.727 C 139.162 110.275 110.411 139.068 74.917 139.068 C 39.422 139.068 10.671 110.275 10.671 74.727 Z " fill-rule="evenodd" fill="rgb(255,255,255)"/></clipPath><g clip-path="url(#_clipPath_FTM9Day5tanRGlxOK3Zvd6fK1IwocUms)"><mask id="_mask_lUBeU92aeE7jrn1yWkHeQvoXjbJPzj5g" x="-200%" y="-200%" width="400%" height="400%"><rect x="-200%" y="-200%" width="400%" height="400%" style="fill:white;"/><path d=" M 10.671 74.727 C 10.671 39.18 39.422 10.387 74.917 10.387 C 110.411 10.387 139.162 39.18 139.162 74.727 C 139.162 110.275 110.411 139.068 74.917 139.068 C 39.422 139.068 10.671 110.275 10.671 74.727 Z " fill="black" stroke="none"/></mask><path d=" M 10.671 74.727 C 10.671 39.18 39.422 10.387 74.917 10.387 C 110.411 10.387 139.162 39.18 139.162 74.727 C 139.162 110.275 110.411 139.068 74.917 139.068 C 39.422 139.068 10.671 110.275 10.671 74.727 Z " fill="rgb(145,145,145)" mask="url(#_mask_lUBeU92aeE7jrn1yWkHeQvoXjbJPzj5g)" vector-effect="non-scaling-stroke" stroke-width="20" stroke="rgb(218,218,218)" stroke-opacity="1000000" stroke-linejoin="round" stroke-linecap="butt" stroke-miterlimit="4"/><path d=" M 10.671 74.727 C 10.671 39.18 39.422 10.387 74.917 10.387 C 110.411 10.387 139.162 39.18 139.162 74.727 C 139.162 110.275 110.411 139.068 74.917 139.068 C 39.422 139.068 10.671 110.275 10.671 74.727 Z " fill="rgb(145,145,145)"/></g><path d=" M 10.671 74.727 C 10.671 39.18 39.422 10.387 74.917 10.387 C 110.411 10.387 139.162 39.18 139.162 74.727 C 139.162 110.275 110.411 139.068 74.917 139.068 C 39.422 139.068 10.671 110.275 10.671 74.727 Z " fill="rgb(145,145,145)"/></g></g><path d=" M 10.671 74.727 C 10.671 39.18 39.422 10.387 74.917 10.387 C 110.411 10.387 139.162 39.18 139.162 74.727 C 139.162 110.275 110.411 139.068 74.917 139.068 C 39.422 139.068 10.671 110.275 10.671 74.727 Z " fill="rgb(145,145,145)"/></g></g></g><path d=" M 10.671 74.727 C 10.671 39.18 39.422 10.387 74.917 10.387 C 110.411 10.387 139.162 39.18 139.162 74.727 C 139.162 110.275 110.411 139.068 74.917 139.068 C 39.422 139.068 10.671 110.275 10.671 74.727 Z " fill="rgb(145,145,145)"/></g><text transform="matrix(1,0,0,1,47.814,103.633)" style="font-family:'Open Sans';font-weight:700;font-size:90px;font-style:normal;font-variant-ligatures:none;fill:#FFFFFF;stroke:none;">3</text></g></g></g></g></g></g></g></g></g></g></svg>