<?xml version="1.0" encoding="UTF-8" standalone="no"?><!-- Generator: Gravit.io --><svg xmlns="http://www.w3.org/2000/svg" xmlns:xlink="http://www.w3.org/1999/xlink" style="isolation:isolate" viewBox="0 0 150 150" width="150pt" height="150pt"><defs><clipPath id="_clipPath_wQswc1UtcN8fpfkuWVFIG6ImqOwCs0I7"><rect width="150" height="150"/></clipPath></defs><g clip-path="url(#_clipPath_wQswc1UtcN8fpfkuWVFIG6ImqOwCs0I7)"><clipPath id="_clipPath_6Tvl9a6Uh5IBFLVSxlQ0Cz2ofYkPFjJr"><rect x="0" y="0" width="150" height="150" transform="matrix(1,0,0,1,0,0)" fill="rgb(255,255,255)"/></clipPath><g clip-path="url(#_clipPath_6Tvl9a6Uh5IBFLVSxlQ0Cz2ofYkPFjJr)"><g><clipPath id="_clipPath_SIEv6qZ9X9Prv3GKzTt50aEdpbJqazas"><rect x="0" y="0" width="150" height="150" transform="matrix(1,0,0,1,0,0)" fill="rgb(255,255,255)"/></clipPath><g clip-path="url(#_clipPath_SIEv6qZ9X9Prv3GKzTt50aEdpbJqazas)"><g><g><clipPath id="_clipPath_3qvscuD40lMx5zwKmZ8ze2NGPUpKghx0"><rect x="0" y="0" width="150" height="150" transform="matrix(1,0,0,1,0,0)" fill="rgb(255,255,255)"/></clipPath><g clip-path="url(#_clipPath_3qvscuD40lMx5zwKmZ8ze2NGPUpKghx0)"><g><g><g><clipPath id="_clipPath_ogXzcgIZ4eH5wgMaCbOGgaoQzxHQFnFz"><rect x="0" y="0" width="150" height="150" transform="matrix(1,0,0,1,0,0)" fill="rgb(255,255,255)"/></clipPath><g clip-path="url(#_clipPath_ogXzcgIZ4eH5wgMaCbOGgaoQzxHQFnFz)"><g><g><g><g><g opacity="0"><rect x="0" y="0" width="150" height="150" transform="matrix(1,0,0,1,0,0)" fill="rgb(255,255,255)"/></g><g><clipPath id="_clipPath_pI5EJXlxvq1Jtj3HHSqnzIWHfxaZ6pLB"><path d=" M -300 -300 L 300 -300 L 300 300 L -300 300 L -300 -300 L -300 -300 L -300 -300 Z  M 10.671 74.727 C 10.671 39.18 39.422 10.387 74.917 10.387 C 110.411 10.387 139.162 39.18 139.162 74.727 C 139.162 110.275 110.411 139.068 74.917 139.068 C 39.422 139.068 10.671 110.275 10.671 74.727 Z " fill-rule="evenodd" fill="rgb(255,255,255)"/></clipPath><g clip-path="url(#_clipPath_pI5EJXlxvq1Jtj3HHSqnzIWHfxaZ6pLB)"><g><g><g><clipPath id="_clipPath_asZjzBSEyC4dQU08izV2mgW1GcuT2hZj"><path d=" M -300 -300 L 300 -300 L 300 300 L -300 300 L -300 -300 L -300 -300 Z  M 10.671 74.727 C 10.671 39.18 39.422 10.387 74.917 10.387 C 110.411 10.387 139.162 39.18 139.162 74.727 C 139.162 110.275 110.411 139.068 74.917 139.068 C 39.422 139.068 10.671 110.275 10.671 74.727 Z " fill-rule="evenodd" fill="rgb(255,255,255)"/></clipPath><g clip-path="url(#_clipPath_asZjzBSEyC4dQU08izV2mgW1GcuT2hZj)"><g><g><clipPath id="_clipPath_OBU5CopPTwfmldeq5tVOLJMY2aGZ6Fgo"><path d=" M -300 -300 L 300 -300 L 300 300 L -300 300 L -300 -300 L -300 -300 Z  M 10.671 74.727 C 10.671 39.18 39.422 10.387 74.917 10.387 C 110.411 10.387 139.162 39.18 139.162 74.727 C 139.162 110.275 110.411 139.068 74.917 139.068 C 39.422 139.068 10.671 110.275 10.671 74.727 Z " fill-rule="evenodd" fill="rgb(255,255,255)"/></clipPath><g clip-path="url(#_clipPath_OBU5CopPTwfmldeq5tVOLJMY2aGZ6Fgo)"><g><clipPath id="_clipPath_kCbuvrB61b4b0ENYaPVXL6kDrg7CBJe9"><path d=" M -300 -300 L 300 -300 L 300 300 L -300 300 L -300 -300 Z  M 10.671 74.727 C 10.671 39.18 39.422 10.387 74.917 10.387 C 110.411 10.387 139.162 39.18 139.162 74.727 C 139.162 110.275 110.411 139.068 74.917 139.068 C 39.422 139.068 10.671 110.275 10.671 74.727 Z " fill-rule="evenodd" fill="rgb(255,255,255)"/></clipPath><g clip-path="url(#_clipPath_kCbuvrB61b4b0ENYaPVXL6kDrg7CBJe9)"><mask id="_mask_3rmgIkM5xPzuF0zHIZNOJO2HRY02dJjL" x="-200%" y="-200%" width="400%" height="400%"><rect x="-200%" y="-200%" width="400%" height="400%" style="fill:white;"/><path d=" M 10.671 74.727 C 10.671 39.18 39.422 10.387 74.917 10.387 C 110.411 10.387 139.162 39.18 139.162 74.727 C 139.162 110.275 110.411 139.068 74.917 139.068 C 39.422 139.068 10.671 110.275 10.671 74.727 Z " fill="black" stroke="none"/></mask><path d=" M 10.671 74.727 C 10.671 39.18 39.422 10.387 74.917 10.387 C 110.411 10.387 139.162 39.18 139.162 74.727 C 139.162 110.275 110.411 139.068 74.917 139.068 C 39.422 139.068 10.671 110.275 10.671 74.727 Z " fill="rgb(145,145,145)" mask="url(#_mask_3rmgIkM5xPzuF0zHIZNOJO2HRY02dJjL)" vector-effect="non-scaling-stroke" stroke-width="20" stroke="rgb(218,218,218)" stroke-opacity="100000000" stroke-linejoin="round" stroke-linecap="butt" stroke-miterlimit="4"/><path d=" M 10.671 74.727 C 10.671 39.18 39.422 10.387 74.917 10.387 C 110.411 10.387 139.162 39.18 139.162 74.727 C 139.162 110.275 110.411 139.068 74.917 139.068 C 39.422 139.068 10.671 110.275 10.671 74.727 Z " fill="rgb(145,145,145)"/></g><path d=" M 10.671 74.727 C 10.671 39.18 39.422 10.387 74.917 10.387 C 110.411 10.387 139.162 39.18 139.162 74.727 C 139.162 110.275 110.411 139.068 74.917 139.068 C 39.422 139.068 10.671 110.275 10.671 74.727 Z " fill="rgb(145,145,145)"/></g></g><path d=" M 10.671 74.727 C 10.671 39.18 39.422 10.387 74.917 10.387 C 110.411 10.387 139.162 39.18 139.162 74.727 C 139.162 110.275 110.411 139.068 74.917 139.068 C 39.422 139.068 10.671 110.275 10.671 74.727 Z " fill="rgb(145,145,145)"/></g></g></g><path d=" M 10.671 74.727 C 10.671 39.18 39.422 10.387 74.917 10.387 C 110.411 10.387 139.162 39.18 139.162 74.727 C 139.162 110.275 110.411 139.068 74.917 139.068 C 39.422 139.068 10.671 110.275 10.671 74.727 Z " fill="rgb(145,145,145)"/></g></g></g></g><path d=" M 10.671 74.727 C 10.671 39.18 39.422 10.387 74.917 10.387 C 110.411 10.387 139.162 39.18 139.162 74.727 C 139.162 110.275 110.411 139.068 74.917 139.068 C 39.422 139.068 10.671 110.275 10.671 74.727 Z " fill="rgb(145,145,145)"/></g><text transform="matrix(1,0,0,1,47.814,103.633)" style="font-family:'Open Sans';font-weight:700;font-size:90px;font-style:normal;font-variant-ligatures:none;fill:#FFFFFF;stroke:none;">4</text></g></g></g></g></g></g></g></g></g></g></g></g></g></g></g></svg>