<?xml version="1.0" encoding="UTF-8" standalone="no"?><!-- Generator: Gravit.io --><svg xmlns="http://www.w3.org/2000/svg" xmlns:xlink="http://www.w3.org/1999/xlink" style="isolation:isolate" viewBox="0 0 150 150" width="150pt" height="150pt"><defs><clipPath id="_clipPath_JrFqHRF33MMan2XSF6GF59zLV6SGkRRo"><rect width="150" height="150"/></clipPath></defs><g clip-path="url(#_clipPath_JrFqHRF33MMan2XSF6GF59zLV6SGkRRo)"><clipPath id="_clipPath_y47tnBa2kgwGjR26gSYNteuDn7oHIXuD"><rect x="0" y="0" width="150" height="150" transform="matrix(1,0,0,1,0,0)" fill="rgb(255,255,255)"/></clipPath><g clip-path="url(#_clipPath_y47tnBa2kgwGjR26gSYNteuDn7oHIXuD)"><g><clipPath id="_clipPath_kzKU7iuj2Ft0LNwVFYMlWq00QRRO6jzf"><rect x="0" y="0" width="150" height="150" transform="matrix(1,0,0,1,0,0)" fill="rgb(255,255,255)"/></clipPath><g clip-path="url(#_clipPath_kzKU7iuj2Ft0LNwVFYMlWq00QRRO6jzf)"><g><g><clipPath id="_clipPath_Tk5XruVoYsD780TQa9A5xK7ViEs4J8fs"><rect x="0" y="0" width="150" height="150" transform="matrix(1,0,0,1,0,0)" fill="rgb(255,255,255)"/></clipPath><g clip-path="url(#_clipPath_Tk5XruVoYsD780TQa9A5xK7ViEs4J8fs)"><g><g><g><clipPath id="_clipPath_Y8yQWUO02cM5IcF7CiYTx6x3atTCqM3C"><rect x="0" y="0" width="150" height="150" transform="matrix(1,0,0,1,0,0)" fill="rgb(255,255,255)"/></clipPath><g clip-path="url(#_clipPath_Y8yQWUO02cM5IcF7CiYTx6x3atTCqM3C)"><g><g><g><g><clipPath id="_clipPath_acRiu9085tWtQtRuh9p0y76P9Pfg04R0"><rect x="0" y="0" width="150" height="150" transform="matrix(1,0,0,1,0,0)" fill="rgb(255,255,255)"/></clipPath><g clip-path="url(#_clipPath_acRiu9085tWtQtRuh9p0y76P9Pfg04R0)"><g><g><g><g><g><g opacity="0"><rect x="0" y="0" width="150" height="150" transform="matrix(1,0,0,1,0,0)" fill="rgb(255,255,255)"/></g><g><clipPath id="_clipPath_VU2Dn7dwcQA5kz34Dta6asiX3rQJb1qo"><path d=" M -300 -300 L 300 -300 L 300 300 L -300 300 L -300 -300 L -300 -300 L -300 -300 L -300 -300 Z  M 10.671 74.727 C 10.671 39.18 39.422 10.387 74.917 10.387 C 110.411 10.387 139.162 39.18 139.162 74.727 C 139.162 110.275 110.411 139.068 74.917 139.068 C 39.422 139.068 10.671 110.275 10.671 74.727 Z " fill-rule="evenodd" fill="rgb(255,255,255)"/></clipPath><g clip-path="url(#_clipPath_VU2Dn7dwcQA5kz34Dta6asiX3rQJb1qo)"><g><g><g><g><clipPath id="_clipPath_ZQMknzh8mm59XI0TH49YKCrz9o5GgYLK"><path d=" M -300 -300 L 300 -300 L 300 300 L -300 300 L -300 -300 L -300 -300 L -300 -300 Z  M 10.671 74.727 C 10.671 39.18 39.422 10.387 74.917 10.387 C 110.411 10.387 139.162 39.18 139.162 74.727 C 139.162 110.275 110.411 139.068 74.917 139.068 C 39.422 139.068 10.671 110.275 10.671 74.727 Z " fill-rule="evenodd" fill="rgb(255,255,255)"/></clipPath><g clip-path="url(#_clipPath_ZQMknzh8mm59XI0TH49YKCrz9o5GgYLK)"><g><g><g><clipPath id="_clipPath_kBw5IcxmbTeq7QgqvpRVwW2o1DFQHoal"><path d=" M -300 -300 L 300 -300 L 300 300 L -300 300 L -300 -300 L -300 -300 L -300 -300 Z  M 10.671 74.727 C 10.671 39.18 39.422 10.387 74.917 10.387 C 110.411 10.387 139.162 39.18 139.162 74.727 C 139.162 110.275 110.411 139.068 74.917 139.068 C 39.422 139.068 10.671 110.275 10.671 74.727 Z " fill-rule="evenodd" fill="rgb(255,255,255)"/></clipPath><g clip-path="url(#_clipPath_kBw5IcxmbTeq7QgqvpRVwW2o1DFQHoal)"><g><g><clipPath id="_clipPath_7rzcMLFgkB5GHnB3lnUZr2xqyDGL9vRv"><path d=" M -300 -300 L 300 -300 L 300 300 L -300 300 L -300 -300 L -300 -300 Z  M 10.671 74.727 C 10.671 39.18 39.422 10.387 74.917 10.387 C 110.411 10.387 139.162 39.18 139.162 74.727 C 139.162 110.275 110.411 139.068 74.917 139.068 C 39.422 139.068 10.671 110.275 10.671 74.727 Z " fill-rule="evenodd" fill="rgb(255,255,255)"/></clipPath><g clip-path="url(#_clipPath_7rzcMLFgkB5GHnB3lnUZr2xqyDGL9vRv)"><g><clipPath id="_clipPath_OqiFHSzY35hus8ljdV2PRSQdB3dIkb7X"><path d=" M -300 -300 L 300 -300 L 300 300 L -300 300 L -300 -300 Z  M 10.671 74.727 C 10.671 39.18 39.422 10.387 74.917 10.387 C 110.411 10.387 139.162 39.18 139.162 74.727 C 139.162 110.275 110.411 139.068 74.917 139.068 C 39.422 139.068 10.671 110.275 10.671 74.727 Z " fill-rule="evenodd" fill="rgb(255,255,255)"/></clipPath><g clip-path="url(#_clipPath_OqiFHSzY35hus8ljdV2PRSQdB3dIkb7X)"><mask id="_mask_SzIlurI1AwZnOSWHLqGSV0RwkEMgdaPx" x="-200%" y="-200%" width="400%" height="400%"><rect x="-200%" y="-200%" width="400%" height="400%" style="fill:white;"/><path d=" M 10.671 74.727 C 10.671 39.18 39.422 10.387 74.917 10.387 C 110.411 10.387 139.162 39.18 139.162 74.727 C 139.162 110.275 110.411 139.068 74.917 139.068 C 39.422 139.068 10.671 110.275 10.671 74.727 Z " fill="black" stroke="none"/></mask><path d=" M 10.671 74.727 C 10.671 39.18 39.422 10.387 74.917 10.387 C 110.411 10.387 139.162 39.18 139.162 74.727 C 139.162 110.275 110.411 139.068 74.917 139.068 C 39.422 139.068 10.671 110.275 10.671 74.727 Z " fill="rgb(145,145,145)" mask="url(#_mask_SzIlurI1AwZnOSWHLqGSV0RwkEMgdaPx)" vector-effect="non-scaling-stroke" stroke-width="20" stroke="rgb(218,218,218)" stroke-opacity="10000000000" stroke-linejoin="round" stroke-linecap="butt" stroke-miterlimit="4"/><path d=" M 10.671 74.727 C 10.671 39.18 39.422 10.387 74.917 10.387 C 110.411 10.387 139.162 39.18 139.162 74.727 C 139.162 110.275 110.411 139.068 74.917 139.068 C 39.422 139.068 10.671 110.275 10.671 74.727 Z " fill="rgb(145,145,145)"/></g><path d=" M 10.671 74.727 C 10.671 39.18 39.422 10.387 74.917 10.387 C 110.411 10.387 139.162 39.18 139.162 74.727 C 139.162 110.275 110.411 139.068 74.917 139.068 C 39.422 139.068 10.671 110.275 10.671 74.727 Z " fill="rgb(145,145,145)"/></g></g><path d=" M 10.671 74.727 C 10.671 39.18 39.422 10.387 74.917 10.387 C 110.411 10.387 139.162 39.18 139.162 74.727 C 139.162 110.275 110.411 139.068 74.917 139.068 C 39.422 139.068 10.671 110.275 10.671 74.727 Z " fill="rgb(145,145,145)"/></g></g></g><path d=" M 10.671 74.727 C 10.671 39.18 39.422 10.387 74.917 10.387 C 110.411 10.387 139.162 39.18 139.162 74.727 C 139.162 110.275 110.411 139.068 74.917 139.068 C 39.422 139.068 10.671 110.275 10.671 74.727 Z " fill="rgb(145,145,145)"/></g></g></g></g><path d=" M 10.671 74.727 C 10.671 39.18 39.422 10.387 74.917 10.387 C 110.411 10.387 139.162 39.18 139.162 74.727 C 139.162 110.275 110.411 139.068 74.917 139.068 C 39.422 139.068 10.671 110.275 10.671 74.727 Z " fill="rgb(145,145,145)"/></g></g></g></g></g><path d=" M 10.671 74.727 C 10.671 39.18 39.422 10.387 74.917 10.387 C 110.411 10.387 139.162 39.18 139.162 74.727 C 139.162 110.275 110.411 139.068 74.917 139.068 C 39.422 139.068 10.671 110.275 10.671 74.727 Z " fill="rgb(145,145,145)"/></g><text transform="matrix(1,0,0,1,47.814,103.633)" style="font-family:'Open Sans';font-weight:700;font-size:90px;font-style:normal;font-variant-ligatures:none;fill:#FFFFFF;stroke:none;">5</text></g></g></g></g></g></g></g></g></g></g></g></g></g></g></g></g></g></g></g></g></g></svg>