<?xml version="1.0" encoding="UTF-8" standalone="no"?><!-- Generator: Gravit.io --><svg xmlns="http://www.w3.org/2000/svg" xmlns:xlink="http://www.w3.org/1999/xlink" style="isolation:isolate" viewBox="0 0 150 150" width="150pt" height="150pt"><defs><clipPath id="_clipPath_ytB1sU0u84KNEumRZntuKGk3Ps4cCdCs"><rect width="150" height="150"/></clipPath></defs><g clip-path="url(#_clipPath_ytB1sU0u84KNEumRZntuKGk3Ps4cCdCs)"><clipPath id="_clipPath_xvhV7ZpnILDhIaIuzvargmh2lRvjcsMw"><rect x="0" y="0" width="150" height="150" transform="matrix(1,0,0,1,0,0)" fill="rgb(255,255,255)"/></clipPath><g clip-path="url(#_clipPath_xvhV7ZpnILDhIaIuzvargmh2lRvjcsMw)"><g><clipPath id="_clipPath_LuQxg4wpSYPoSjnsqUcBUOuJCx9YOuSR"><rect x="0" y="0" width="150" height="150" transform="matrix(1,0,0,1,0,0)" fill="rgb(255,255,255)"/></clipPath><g clip-path="url(#_clipPath_LuQxg4wpSYPoSjnsqUcBUOuJCx9YOuSR)"><g><g><clipPath id="_clipPath_hwBKQiN0pLRqz6ZjLV94hWo1bbjyPXHV"><rect x="0" y="0" width="150" height="150" transform="matrix(1,0,0,1,0,0)" fill="rgb(255,255,255)"/></clipPath><g clip-path="url(#_clipPath_hwBKQiN0pLRqz6ZjLV94hWo1bbjyPXHV)"><g><g><g><clipPath id="_clipPath_rt5UZfeo0BOhvYtqY5YYTi0jz8NObf8U"><rect x="0" y="0" width="150" height="150" transform="matrix(1,0,0,1,0,0)" fill="rgb(255,255,255)"/></clipPath><g clip-path="url(#_clipPath_rt5UZfeo0BOhvYtqY5YYTi0jz8NObf8U)"><g><g><g><g><clipPath id="_clipPath_pVkz5VMPtEEIqqgBQy4TsNLluskIo25H"><rect x="0" y="0" width="150" height="150" transform="matrix(1,0,0,1,0,0)" fill="rgb(255,255,255)"/></clipPath><g clip-path="url(#_clipPath_pVkz5VMPtEEIqqgBQy4TsNLluskIo25H)"><g><g><g><g><g><g opacity="0"><rect x="0" y="0" width="150" height="150" transform="matrix(1,0,0,1,0,0)" fill="rgb(255,255,255)"/></g><g><clipPath id="_clipPath_uw2I4tCmrD6qqzQBpSp7pDmkxhTImFsi"><path d=" M -300 -300 L 300 -300 L 300 300 L -300 300 L -300 -300 L -300 -300 L -300 -300 L -300 -300 Z  M 10.671 74.727 C 10.671 39.18 39.422 10.387 74.917 10.387 C 110.411 10.387 139.162 39.18 139.162 74.727 C 139.162 110.275 110.411 139.068 74.917 139.068 C 39.422 139.068 10.671 110.275 10.671 74.727 Z " fill-rule="evenodd" fill="rgb(255,255,255)"/></clipPath><g clip-path="url(#_clipPath_uw2I4tCmrD6qqzQBpSp7pDmkxhTImFsi)"><g><g><g><g><clipPath id="_clipPath_HVcdmFXmDRc6Z0C20UHQ8Ilhu5zc8V9E"><path d=" M -300 -300 L 300 -300 L 300 300 L -300 300 L -300 -300 L -300 -300 L -300 -300 Z  M 10.671 74.727 C 10.671 39.18 39.422 10.387 74.917 10.387 C 110.411 10.387 139.162 39.18 139.162 74.727 C 139.162 110.275 110.411 139.068 74.917 139.068 C 39.422 139.068 10.671 110.275 10.671 74.727 Z " fill-rule="evenodd" fill="rgb(255,255,255)"/></clipPath><g clip-path="url(#_clipPath_HVcdmFXmDRc6Z0C20UHQ8Ilhu5zc8V9E)"><g><g><g><clipPath id="_clipPath_eJsWg00bxHToi0aBfHjedIa8ol3XSQb2"><path d=" M -300 -300 L 300 -300 L 300 300 L -300 300 L -300 -300 L -300 -300 L -300 -300 Z  M 10.671 74.727 C 10.671 39.18 39.422 10.387 74.917 10.387 C 110.411 10.387 139.162 39.18 139.162 74.727 C 139.162 110.275 110.411 139.068 74.917 139.068 C 39.422 139.068 10.671 110.275 10.671 74.727 Z " fill-rule="evenodd" fill="rgb(255,255,255)"/></clipPath><g clip-path="url(#_clipPath_eJsWg00bxHToi0aBfHjedIa8ol3XSQb2)"><g><g><clipPath id="_clipPath_WRou59nPvk8t3dmX70P3SDJUfYAnYkDF"><path d=" M -300 -300 L 300 -300 L 300 300 L -300 300 L -300 -300 L -300 -300 Z  M 10.671 74.727 C 10.671 39.18 39.422 10.387 74.917 10.387 C 110.411 10.387 139.162 39.18 139.162 74.727 C 139.162 110.275 110.411 139.068 74.917 139.068 C 39.422 139.068 10.671 110.275 10.671 74.727 Z " fill-rule="evenodd" fill="rgb(255,255,255)"/></clipPath><g clip-path="url(#_clipPath_WRou59nPvk8t3dmX70P3SDJUfYAnYkDF)"><g><clipPath id="_clipPath_rEpMTbaHgvuD3mcM4oM3e6daXe3myw5f"><path d=" M -300 -300 L 300 -300 L 300 300 L -300 300 L -300 -300 Z  M 10.671 74.727 C 10.671 39.18 39.422 10.387 74.917 10.387 C 110.411 10.387 139.162 39.18 139.162 74.727 C 139.162 110.275 110.411 139.068 74.917 139.068 C 39.422 139.068 10.671 110.275 10.671 74.727 Z " fill-rule="evenodd" fill="rgb(255,255,255)"/></clipPath><g clip-path="url(#_clipPath_rEpMTbaHgvuD3mcM4oM3e6daXe3myw5f)"><mask id="_mask_grObJt8GM91wg7pLheUCn1vccXue6uxg" x="-200%" y="-200%" width="400%" height="400%"><rect x="-200%" y="-200%" width="400%" height="400%" style="fill:white;"/><path d=" M 10.671 74.727 C 10.671 39.18 39.422 10.387 74.917 10.387 C 110.411 10.387 139.162 39.18 139.162 74.727 C 139.162 110.275 110.411 139.068 74.917 139.068 C 39.422 139.068 10.671 110.275 10.671 74.727 Z " fill="black" stroke="none"/></mask><path d=" M 10.671 74.727 C 10.671 39.18 39.422 10.387 74.917 10.387 C 110.411 10.387 139.162 39.18 139.162 74.727 C 139.162 110.275 110.411 139.068 74.917 139.068 C 39.422 139.068 10.671 110.275 10.671 74.727 Z " fill="rgb(145,145,145)" mask="url(#_mask_grObJt8GM91wg7pLheUCn1vccXue6uxg)" vector-effect="non-scaling-stroke" stroke-width="20" stroke="rgb(218,218,218)" stroke-opacity="10000000000" stroke-linejoin="round" stroke-linecap="butt" stroke-miterlimit="4"/><path d=" M 10.671 74.727 C 10.671 39.18 39.422 10.387 74.917 10.387 C 110.411 10.387 139.162 39.18 139.162 74.727 C 139.162 110.275 110.411 139.068 74.917 139.068 C 39.422 139.068 10.671 110.275 10.671 74.727 Z " fill="rgb(145,145,145)"/></g><path d=" M 10.671 74.727 C 10.671 39.18 39.422 10.387 74.917 10.387 C 110.411 10.387 139.162 39.18 139.162 74.727 C 139.162 110.275 110.411 139.068 74.917 139.068 C 39.422 139.068 10.671 110.275 10.671 74.727 Z " fill="rgb(145,145,145)"/></g></g><path d=" M 10.671 74.727 C 10.671 39.18 39.422 10.387 74.917 10.387 C 110.411 10.387 139.162 39.18 139.162 74.727 C 139.162 110.275 110.411 139.068 74.917 139.068 C 39.422 139.068 10.671 110.275 10.671 74.727 Z " fill="rgb(145,145,145)"/></g></g></g><path d=" M 10.671 74.727 C 10.671 39.18 39.422 10.387 74.917 10.387 C 110.411 10.387 139.162 39.18 139.162 74.727 C 139.162 110.275 110.411 139.068 74.917 139.068 C 39.422 139.068 10.671 110.275 10.671 74.727 Z " fill="rgb(145,145,145)"/></g></g></g></g><path d=" M 10.671 74.727 C 10.671 39.18 39.422 10.387 74.917 10.387 C 110.411 10.387 139.162 39.18 139.162 74.727 C 139.162 110.275 110.411 139.068 74.917 139.068 C 39.422 139.068 10.671 110.275 10.671 74.727 Z " fill="rgb(145,145,145)"/></g></g></g></g></g><path d=" M 10.671 74.727 C 10.671 39.18 39.422 10.387 74.917 10.387 C 110.411 10.387 139.162 39.18 139.162 74.727 C 139.162 110.275 110.411 139.068 74.917 139.068 C 39.422 139.068 10.671 110.275 10.671 74.727 Z " fill="rgb(145,145,145)"/></g><text transform="matrix(1,0,0,1,47.814,103.633)" style="font-family:'Open Sans';font-weight:700;font-size:90px;font-style:normal;font-variant-ligatures:none;fill:#FFFFFF;stroke:none;">9</text></g></g></g></g></g></g></g></g></g></g></g></g></g></g></g></g></g></g></g></g></g></svg>