<?xml version="1.0" encoding="UTF-8" standalone="no"?><!-- Generator: Gravit.io --><svg xmlns="http://www.w3.org/2000/svg" xmlns:xlink="http://www.w3.org/1999/xlink" style="isolation:isolate" viewBox="0 0 150 150" width="150pt" height="150pt"><defs><clipPath id="_clipPath_AoFlGJHsLeFzRIbr3WVflrAYrCHThX9w"><rect width="150" height="150"/></clipPath></defs><g clip-path="url(#_clipPath_AoFlGJHsLeFzRIbr3WVflrAYrCHThX9w)"><clipPath id="_clipPath_AwSprEM4YAAkrIlBLmY2exCQxQfCeuM3"><rect x="0" y="0" width="150" height="150" transform="matrix(1,0,0,1,0,0)" fill="rgb(255,255,255)"/></clipPath><g clip-path="url(#_clipPath_AwSprEM4YAAkrIlBLmY2exCQxQfCeuM3)"><g><clipPath id="_clipPath_PvtpjkIOA7fzDLnz2txbPIReZ1KqDkb6"><rect x="0" y="0" width="150" height="150" transform="matrix(1,0,0,1,0,0)" fill="rgb(255,255,255)"/></clipPath><g clip-path="url(#_clipPath_PvtpjkIOA7fzDLnz2txbPIReZ1KqDkb6)"><g><g><clipPath id="_clipPath_kZjPPlPb1IUXZHBHJCzJ2mybcewD7L2e"><rect x="0" y="0" width="150" height="150" transform="matrix(1,0,0,1,0,0)" fill="rgb(255,255,255)"/></clipPath><g clip-path="url(#_clipPath_kZjPPlPb1IUXZHBHJCzJ2mybcewD7L2e)"><g><g><g><clipPath id="_clipPath_XZZWJVMeexRZaaEOuUBoOfurw7PrmjYE"><rect x="0" y="0" width="150" height="150" transform="matrix(1,0,0,1,0,0)" fill="rgb(255,255,255)"/></clipPath><g clip-path="url(#_clipPath_XZZWJVMeexRZaaEOuUBoOfurw7PrmjYE)"><g><g><g><g><clipPath id="_clipPath_1RpZhiggoxiqLQX4BBlZwOBFqeKL57I0"><rect x="0" y="0" width="150" height="150" transform="matrix(1,0,0,1,0,0)" fill="rgb(255,255,255)"/></clipPath><g clip-path="url(#_clipPath_1RpZhiggoxiqLQX4BBlZwOBFqeKL57I0)"><g><g><g><g><g><g opacity="0"><rect x="0" y="0" width="150" height="150" transform="matrix(1,0,0,1,0,0)" fill="rgb(255,255,255)"/></g><g><clipPath id="_clipPath_axa3qtnNZX4EklTaMsYPPfI3nFvdSgLr"><path d=" M -300 -300 L 300 -300 L 300 300 L -300 300 L -300 -300 L -300 -300 L -300 -300 L -300 -300 Z  M 10.671 74.727 C 10.671 39.18 39.422 10.387 74.917 10.387 C 110.411 10.387 139.162 39.18 139.162 74.727 C 139.162 110.275 110.411 139.068 74.917 139.068 C 39.422 139.068 10.671 110.275 10.671 74.727 Z " fill-rule="evenodd" fill="rgb(255,255,255)"/></clipPath><g clip-path="url(#_clipPath_axa3qtnNZX4EklTaMsYPPfI3nFvdSgLr)"><g><g><g><g><clipPath id="_clipPath_8c7nhhYr4aZCPMlncs1AvTWvOvO3y5fQ"><path d=" M -300 -300 L 300 -300 L 300 300 L -300 300 L -300 -300 L -300 -300 L -300 -300 Z  M 10.671 74.727 C 10.671 39.18 39.422 10.387 74.917 10.387 C 110.411 10.387 139.162 39.18 139.162 74.727 C 139.162 110.275 110.411 139.068 74.917 139.068 C 39.422 139.068 10.671 110.275 10.671 74.727 Z " fill-rule="evenodd" fill="rgb(255,255,255)"/></clipPath><g clip-path="url(#_clipPath_8c7nhhYr4aZCPMlncs1AvTWvOvO3y5fQ)"><g><g><g><clipPath id="_clipPath_ZUHIMi9MM1ZSx9A1aoGZ3syaj7yJjrGG"><path d=" M -300 -300 L 300 -300 L 300 300 L -300 300 L -300 -300 L -300 -300 L -300 -300 Z  M 10.671 74.727 C 10.671 39.18 39.422 10.387 74.917 10.387 C 110.411 10.387 139.162 39.18 139.162 74.727 C 139.162 110.275 110.411 139.068 74.917 139.068 C 39.422 139.068 10.671 110.275 10.671 74.727 Z " fill-rule="evenodd" fill="rgb(255,255,255)"/></clipPath><g clip-path="url(#_clipPath_ZUHIMi9MM1ZSx9A1aoGZ3syaj7yJjrGG)"><g><g><clipPath id="_clipPath_wFATRdggZHMbaksOsTzm71qcpbOMgKsr"><path d=" M -300 -300 L 300 -300 L 300 300 L -300 300 L -300 -300 L -300 -300 Z  M 10.671 74.727 C 10.671 39.18 39.422 10.387 74.917 10.387 C 110.411 10.387 139.162 39.18 139.162 74.727 C 139.162 110.275 110.411 139.068 74.917 139.068 C 39.422 139.068 10.671 110.275 10.671 74.727 Z " fill-rule="evenodd" fill="rgb(255,255,255)"/></clipPath><g clip-path="url(#_clipPath_wFATRdggZHMbaksOsTzm71qcpbOMgKsr)"><g><clipPath id="_clipPath_MI6yMhSJmpfR987YIjbDNIT7gTf2YV7X"><path d=" M -300 -300 L 300 -300 L 300 300 L -300 300 L -300 -300 Z  M 10.671 74.727 C 10.671 39.18 39.422 10.387 74.917 10.387 C 110.411 10.387 139.162 39.18 139.162 74.727 C 139.162 110.275 110.411 139.068 74.917 139.068 C 39.422 139.068 10.671 110.275 10.671 74.727 Z " fill-rule="evenodd" fill="rgb(255,255,255)"/></clipPath><g clip-path="url(#_clipPath_MI6yMhSJmpfR987YIjbDNIT7gTf2YV7X)"><mask id="_mask_wdnPYkhWG5EhvQTVhhE82u4yTL4szKlm" x="-200%" y="-200%" width="400%" height="400%"><rect x="-200%" y="-200%" width="400%" height="400%" style="fill:white;"/><path d=" M 10.671 74.727 C 10.671 39.18 39.422 10.387 74.917 10.387 C 110.411 10.387 139.162 39.18 139.162 74.727 C 139.162 110.275 110.411 139.068 74.917 139.068 C 39.422 139.068 10.671 110.275 10.671 74.727 Z " fill="black" stroke="none"/></mask><path d=" M 10.671 74.727 C 10.671 39.18 39.422 10.387 74.917 10.387 C 110.411 10.387 139.162 39.18 139.162 74.727 C 139.162 110.275 110.411 139.068 74.917 139.068 C 39.422 139.068 10.671 110.275 10.671 74.727 Z " fill="rgb(145,145,145)" mask="url(#_mask_wdnPYkhWG5EhvQTVhhE82u4yTL4szKlm)" vector-effect="non-scaling-stroke" stroke-width="20" stroke="rgb(218,218,218)" stroke-opacity="10000000000" stroke-linejoin="round" stroke-linecap="butt" stroke-miterlimit="4"/><path d=" M 10.671 74.727 C 10.671 39.18 39.422 10.387 74.917 10.387 C 110.411 10.387 139.162 39.18 139.162 74.727 C 139.162 110.275 110.411 139.068 74.917 139.068 C 39.422 139.068 10.671 110.275 10.671 74.727 Z " fill="rgb(145,145,145)"/></g><path d=" M 10.671 74.727 C 10.671 39.18 39.422 10.387 74.917 10.387 C 110.411 10.387 139.162 39.18 139.162 74.727 C 139.162 110.275 110.411 139.068 74.917 139.068 C 39.422 139.068 10.671 110.275 10.671 74.727 Z " fill="rgb(145,145,145)"/></g></g><path d=" M 10.671 74.727 C 10.671 39.18 39.422 10.387 74.917 10.387 C 110.411 10.387 139.162 39.18 139.162 74.727 C 139.162 110.275 110.411 139.068 74.917 139.068 C 39.422 139.068 10.671 110.275 10.671 74.727 Z " fill="rgb(145,145,145)"/></g></g></g><path d=" M 10.671 74.727 C 10.671 39.18 39.422 10.387 74.917 10.387 C 110.411 10.387 139.162 39.18 139.162 74.727 C 139.162 110.275 110.411 139.068 74.917 139.068 C 39.422 139.068 10.671 110.275 10.671 74.727 Z " fill="rgb(145,145,145)"/></g></g></g></g><path d=" M 10.671 74.727 C 10.671 39.18 39.422 10.387 74.917 10.387 C 110.411 10.387 139.162 39.18 139.162 74.727 C 139.162 110.275 110.411 139.068 74.917 139.068 C 39.422 139.068 10.671 110.275 10.671 74.727 Z " fill="rgb(145,145,145)"/></g></g></g></g></g><path d=" M 10.671 74.727 C 10.671 39.18 39.422 10.387 74.917 10.387 C 110.411 10.387 139.162 39.18 139.162 74.727 C 139.162 110.275 110.411 139.068 74.917 139.068 C 39.422 139.068 10.671 110.275 10.671 74.727 Z " fill="rgb(145,145,145)"/></g><text transform="matrix(1,0,0,1,38.325,118.379)" style="font-family:'Open Sans';font-weight:700;font-size:125px;font-style:normal;font-variant-ligatures:none;fill:#FFFFFF;stroke:none;">+</text></g></g></g></g></g></g></g></g></g></g></g></g></g></g></g></g></g></g></g></g></g></svg>